# Created by Metasequoia

v 0.500000 0.500000 0.500000
v 0.500000 -0.500000 0.500000
v -0.500000 0.500000 0.500000
v -0.500000 -0.500000 0.500000
v -0.500000 0.500000 -0.500000
v -0.500000 -0.500000 -0.500000
v 0.500000 0.500000 -0.500000
v 0.500000 -0.500000 -0.500000
# 8 vertices

vn 0.00000 0.00000 1.00000
vn -1.00000 0.00000 0.00000
vn 0.00000 0.00000 -1.00000
vn 1.00000 0.00000 0.00000
vn 0.00000 1.00000 0.00000
vn 0.00000 -1.00000 0.00000
# 6 normal vertices

f 3//1 4//1 2//1
f 3//1 2//1 1//1
f 5//2 6//2 4//2
f 5//2 4//2 3//2
f 7//3 8//3 6//3
f 7//3 6//3 5//3
f 1//4 2//4 8//4
f 1//4 8//4 7//4
f 5//5 3//5 1//5
f 5//5 1//5 7//5
f 4//6 6//6 8//6
f 4//6 8//6 2//6
# 12 elements

